<?xml version="1.0" encoding="UTF-8"?>
<svg id="Camada_1" data-name="Camada 1" xmlns="http://www.w3.org/2000/svg" viewBox="0 0 20 20">
  <defs>
    <style>
      .cls-1 {
        fill: #fff;
      }
    </style>
  </defs>
  <path class="cls-1" d="M10.44,19.99h-.9c-1.64-.23-2.88-1.15-3.59-2.64-.05-.1-.16-.5-.23-.52h-3.51c-.88-.07-1.7-.69-1.92-1.56-.13-.53-.05-.82.05-1.34.53-2.74,1.27-5.44,1.83-8.17,2.14-7.48,12.66-7.79,15.11-.26.96,2.97,1.64,6.14,2.49,9.14,0,1.17-.85,2.07-2.01,2.17h-3.51s-.22.53-.26.64c-.63,1.34-2.05,2.4-3.55,2.52ZM17.11,14.29l-2.17-7.81c-1.58-5.35-8.97-5.32-10.41.2-.64,2.44-1.03,4.99-1.66,7.44v.17s14.24,0,14.24,0Z"/>
</svg>