<?xml version="1.0" encoding="UTF-8"?>
<svg id="Camada_1" data-name="Camada 1" xmlns="http://www.w3.org/2000/svg" viewBox="0 0 20 20">
  <defs>
    <style>
      .cls-1 {
        fill: #fff;
      }
    </style>
  </defs>
  <path class="cls-1" d="M6.46,0c.38.11.72.31.89.69.02.05.12.31.12.35v.64h4.98v-.64s.11-.31.13-.37c.17-.35.52-.55.88-.66h.47c.38.11.72.31.89.69.02.05.12.31.12.35v.64c2.53-.25,4.84,1.72,4.98,4.26.19,3.21-.14,6.59,0,9.82-.2,2.21-1.98,3.99-4.18,4.19H4.26c-1.82-.13-3.48-1.39-4.04-3.13-.1-.32-.14-.65-.22-.97V5.77c.19-1.47,1.02-2.78,2.31-3.51.83-.47,1.72-.64,2.67-.58v-.64s.11-.31.13-.37c.17-.35.52-.55.88-.66h.47ZM17.44,7.48H2.49v8.12c0,.86,1.04,1.82,1.89,1.85,3.8-.03,7.62.08,11.42-.05.78-.11,1.63-1.05,1.63-1.83V7.48Z"/>
  <path class="cls-1" d="M13.77,9.56c1.2-.13,1.84,1.33,1,2.17-1.25,1.04-2.36,2.34-3.6,3.37s-2.75.91-3.89-.08c-.64-.56-1.55-1.42-2.12-2.04-1.13-1.22.44-2.85,1.64-1.91.77.6,1.46,1.5,2.22,2.14.35.23.59-.07.84-.29,1.12-1,2.16-2.1,3.29-3.1.18-.14.4-.24.63-.26Z"/>
</svg>