<?xml version="1.0" encoding="UTF-8"?>
<svg id="Camada_1" data-name="Camada 1" xmlns="http://www.w3.org/2000/svg" viewBox="0 0 20 20">
  <path d="M11.64.04c.16.02.46.09.62.14,1.19.33,2.08,1.22,2.52,2.36h3.27c1.16.14,1.53,1.69.52,2.3-.07.04-.37.19-.44.19h-.64v10.72c-.18,2.25-2.01,4.07-4.27,4.22-2.12-.11-4.38.14-6.48,0-2.21-.14-4.06-1.99-4.23-4.19V5.02h-.64c-.06,0-.37-.14-.44-.19-1.01-.61-.64-2.16.52-2.3h3.27c.44-1.13,1.34-2.02,2.52-2.35.17-.05.46-.12.62-.14.81-.07,2.47-.07,3.28,0ZM15,5.02H5v10.6c0,.89,1.09,1.86,1.97,1.85,1.96-.1,4.03.13,5.98,0,.97-.06,2.05-.85,2.05-1.89V5.02Z"/>
  <path d="M7.69,7.52c.8-.13,1.43.43,1.49,1.22.13,1.64-.1,3.44,0,5.09-.18,1.46-2.18,1.56-2.49.12v-5.44c.1-.47.53-.91,1-.99Z"/>
  <path d="M11.86,7.53c.7-.1,1.32.33,1.45,1.02v5.44c-.37,1.44-2.38,1.28-2.5-.23-.13-1.64.1-3.44,0-5.09.05-.55.49-1.06,1.04-1.14Z"/>
</svg>