<?xml version="1.0" encoding="UTF-8"?>
<svg id="Camada_1" data-name="Camada 1" xmlns="http://www.w3.org/2000/svg" viewBox="0 0 20 20">
  <path d="M.02,18.94c.05-.74-.07-1.57,0-2.3.09-.97.6-1.94,1.23-2.65L14.59.69c3.35-2.35,7.18,1.77,4.52,4.91l-13.14,13.15c-1.27,1.21-3.12,1.35-4.8,1.21-.59-.05-1-.46-1.15-1.02ZM17.24,2.73c-.35-.35-.86-.27-1.22.02-.52.43-.98,1.06-1.5,1.5l1.19,1.19c.45-.52,1.07-.98,1.5-1.5.31-.37.4-.85.02-1.22ZM2.52,17.46c.63.04,1.24-.12,1.72-.53L13.94,7.22l-1.19-1.19L3.04,15.74c-.41.48-.57,1.09-.53,1.72Z"/>
</svg>