<?xml version="1.0" encoding="UTF-8"?>
<svg id="Camada_1" data-name="Camada 1" xmlns="http://www.w3.org/2000/svg" viewBox="0 0 20 20">
  <defs>
    <style>
      .cls-1 {
        fill: #9b9b9a;
      }
    </style>
  </defs>
  <path class="cls-1" d="M10.62,19.99h-1.33c-3.88-.29-7.33-2.82-8.69-6.47-.23-.62-.67-2.02-.51-2.63.2-.74,1.04-1.09,1.73-.78.81.37.75,1.33.97,2.08,1.76,5.91,9.67,7.2,13.26,2.18,3.84-5.37-.68-12.73-7.2-11.77-1.37.2-2.67.82-3.73,1.69-.02.08.86.86.97,1.01.45.6.08,1.33-.64,1.39-1.24-.09-2.65.12-3.87,0-.45-.05-.76-.39-.8-.84-.11-1.22.08-2.59,0-3.83.04-.63.64-1.02,1.22-.75.29.14,1.21,1.24,1.34,1.24C6.83-.55,11.95-.84,15.75,1.85c7.63,5.41,4.19,17.39-5.06,18.11l-.06.04Z"/>
  <path class="cls-1" d="M9.41,5.83c.67-.07,1.32.42,1.38,1.1.09,1.07-.08,2.27,0,3.35.04.14,1.11,1.08,1.3,1.32.98,1.21-.54,2.74-1.76,1.8-.33-.26-1.7-1.64-1.86-1.96-.1-.2-.17-.49-.19-.71-.09-1.21.06-2.55.01-3.78.06-.57.54-1.05,1.11-1.11Z"/>
</svg>