<?xml version="1.0" encoding="UTF-8"?>
<svg id="Camada_1" data-name="Camada 1" xmlns="http://www.w3.org/2000/svg" viewBox="0 0 20 20">
  <defs>
    <style>
      .cls-1 {
        fill: #9b9b9a;
      }
    </style>
  </defs>
  <path class="cls-1" d="M5.39.02c1.12.12,2.15,1.09,2.43,2.15.74,2.79-2.57,4.83-4.75,2.95C1.19,3.51,2.19.29,4.61.02c.19-.02.59-.02.78,0Z"/>
  <path class="cls-1" d="M15.39.02c1.12.12,2.15,1.09,2.43,2.15.74,2.79-2.57,4.83-4.75,2.95C11.18,3.51,12.18.29,14.61.02c.19-.02.59-.02.78,0Z"/>
  <path class="cls-1" d="M19.99,9.23v3.28h-2.5v-2.98c0-.1-.21-.33-.33-.33l-2.75-.02c-.3-1.02-.92-1.8-1.72-2.48h4.86c.84,0,2.1,1.13,2.29,1.96l.15.58Z"/>
  <path class="cls-1" d="M15,19.99h-2.5v-2.98c0-.11-.23-.35-.37-.33-1.36.1-2.88-.12-4.22,0-.16.01-.41.16-.41.33v2.98h-2.5v-3.3c0-1.12,1.43-2.48,2.56-2.52,1.58.09,3.28-.12,4.84,0,1.18.09,2.59,1.33,2.59,2.56v3.26Z"/>
  <path class="cls-1" d="M9.64,7.52c2.34-.25,4.05,2.17,2.94,4.27s-4.03,2.06-5.14.05c-.99-1.79.17-4.1,2.2-4.32Z"/>
  <path class="cls-1" d="M7.31,6.69c-.79.68-1.41,1.46-1.72,2.48l-2.75.02c-.12,0-.33.23-.33.33v2.98H0v-3.3c0-.6.62-1.52,1.07-1.89.26-.21,1.05-.62,1.37-.62h4.86Z"/>
</svg>