<?xml version="1.0" encoding="UTF-8"?>
<svg id="Camada_1" data-name="Camada 1" xmlns="http://www.w3.org/2000/svg" viewBox="0 0 20 20">
  <defs>
    <style>
      .cls-1 {
        fill: #fff;
      }
    </style>
  </defs>
  <path class="cls-1" d="M19.98,9.67c.02.15.02.47,0,.62-.05.44-.32.99-.6,1.33l-4.25,4.25-1.77-1.77,2.85-2.87H5.51v-2.5h10.69l-2.85-2.87,1.77-1.77,4.25,4.25c.28.33.56.89.6,1.33Z"/>
  <path class="cls-1" d="M10.81,6.94h-2.5V2.82c0-.07-.18-.27-.27-.27l-5.17-.02c-.15,0-.27.12-.33.25l-.02,14.34c.04.21.18.32.39.35h4.99c.15.02.41-.19.41-.33v-4.06l.06-.06h2.44v4.47c0,.08-.11.42-.15.52-.36,1.05-1.37,1.87-2.49,1.96-1.79.15-3.77-.1-5.57,0-1.4-.17-2.49-1.3-2.6-2.7V2.78C.1,1.37,1.18.19,2.6.03c1.84.11,3.84-.14,5.66,0,1.1.09,2.55,1.33,2.55,2.48v4.43Z"/>
</svg>