<?xml version="1.0" encoding="UTF-8"?>
<svg id="Camada_1" data-name="Camada 1" xmlns="http://www.w3.org/2000/svg" viewBox="0 0 32 32">
  <defs>
    <style>
      .cls-1 {
        fill: #fff;
      }
    </style>
  </defs>
  <path class="cls-1" d="M26.1,19.64c0,.16,0,.31-.01.46,0,0,0,0,0,.01,0,.13-.01.25-.02.37,0,.05,0,.09-.01.13-.01.13-.03.26-.05.39h0c-.04.29-.09.57-.16.84-.03.13-.07.27-.11.4-.04.13-.09.25-.13.37-.05.12-.1.25-.15.36-.05.12-.11.23-.17.35-.06.11-.12.22-.19.33-.07.11-.14.21-.21.32-.15.21-.31.4-.49.59-.09.09-.18.18-.27.27-.09.09-.19.17-.29.25-.1.08-.21.16-.31.24-1.73,1.24-4.04,1.85-6.92,1.85-.21,0-.42,0-.63,0h0s-.17,0-.17,0v-4.96h.17c.88,0,1.61-.09,2.19-.28.57-.19.86-.57.86-1.16,0-.07,0-.15-.02-.21,0-.04-.02-.08-.03-.12-.01-.04-.03-.08-.04-.11-.07-.15-.17-.29-.32-.41-.03-.03-.07-.06-.11-.09-.12-.09-.27-.16-.43-.23-.28-.11-.64-.23-1.07-.35-.13-.03-.25-.07-.39-.1-.12-.03-.24-.06-.37-.09-.19-.05-.4-.09-.61-.14-.13-.03-.27-.06-.41-.09-.09-.02-.17-.04-.27-.05-.55-.12-1.07-.24-1.56-.36-.17-.04-.34-.09-.5-.13-.68-.18-1.3-.36-1.86-.54-.15-.05-.3-.1-.45-.15s-.28-.11-.42-.16c-.28-.12-.55-.26-.81-.41-.13-.07-.25-.15-.38-.24-.5-.34-.97-.74-1.4-1.22-.86-.94-1.29-2.22-1.29-3.83,0-.16,0-.32.01-.47,0-.13.02-.26.03-.39.01-.12.03-.23.05-.35.01-.1.03-.21.05-.31.01-.07.03-.13.04-.19.01-.06.03-.12.04-.18.01-.05.03-.11.05-.16.02-.08.04-.15.07-.23,0-.02.01-.04.02-.06.02-.05.03-.09.05-.14,0,0,0-.01,0-.02.02-.07.05-.13.08-.19h0s.03-.07.05-.11c.07-.16.15-.31.23-.46.05-.08.09-.15.14-.23.01-.03.03-.05.05-.07.03-.05.07-.1.1-.15.07-.09.14-.18.21-.27.01-.02.03-.05.05-.07.02-.02.04-.04.05-.06.05-.06.1-.11.16-.17.03-.03.07-.07.1-.1.05-.05.1-.09.15-.14.14-.13.29-.25.44-.37.15-.12.32-.23.49-.33.23-.14.47-.27.71-.39.12-.06.25-.12.37-.18.01,0,.03-.01.04-.02.11-.05.23-.1.34-.14.06-.03.13-.05.19-.08.07-.03.13-.05.2-.07.13-.05.27-.09.41-.14.09-.03.18-.06.28-.08.05-.02.1-.03.15-.04.11-.03.22-.06.33-.09.67-.17,1.39-.29,2.15-.36.12-.01.24-.02.36-.03.09,0,.19-.01.29-.02.11,0,.21-.01.32-.02.12,0,.24,0,.36-.01.15,0,.3,0,.46,0,.23,0,.45,0,.68.01.15,0,.29,0,.43.02.02,0,.04,0,.07,0,.15,0,.3.02.45.03.04,0,.09,0,.13.01.16.02.32.03.48.05.16.02.32.04.48.07,0,0,.02,0,.03,0,.16.02.31.05.47.08.15.03.3.06.45.1.1.02.19.05.29.07.06.01.11.03.17.05.06.01.11.03.17.05.09.03.17.05.26.08.06.02.12.04.18.06.09.03.19.07.28.1.25.09.48.19.72.29.14.06.28.13.42.2.15.07.29.15.43.24.09.05.17.1.25.15.1.06.2.13.29.2.06.04.13.09.19.14.05.04.1.08.15.12.05.03.09.07.13.11.04.03.07.06.11.09.17.15.32.3.46.46.07.07.13.15.19.23.07.08.13.17.19.26.06.09.12.18.18.27s.11.19.16.28c.05.09.1.19.14.29.09.2.17.4.24.61.03.11.07.21.09.32.06.22.1.44.13.67.02.12.03.23.04.35.02.19.03.38.03.57v.37h-6.5v-.13c0-.63-.23-1.15-.69-1.57h0s-.05-.04-.07-.06h0s-.03-.03-.04-.03c-.05-.04-.09-.07-.14-.1,0-.01-.02-.02-.03-.02-.03-.02-.05-.04-.08-.05-.03-.01-.05-.03-.08-.04,0,0-.01,0-.02,0-.04-.03-.09-.05-.13-.06-.02-.01-.04-.02-.06-.03-.07-.03-.14-.05-.21-.07-.02,0-.04-.01-.06-.01-.07-.02-.15-.04-.22-.06h0c-.09-.02-.19-.04-.29-.05-.01,0-.02,0-.03,0-.05,0-.1-.01-.16-.01-.04,0-.08,0-.11-.01-.02,0-.04,0-.06,0-.1,0-.2,0-.31,0-.92,0-1.63.14-2.12.41-.3.17-.51.35-.63.57-.01.03-.03.05-.04.08,0,.02-.02.04-.02.06-.02.05-.03.11-.04.16,0,.02,0,.03,0,.05,0,.03,0,.06,0,.09,0,.04,0,.08,0,.12,0,.04,0,.07.01.11,0,.04.01.07.03.11,0,.03.02.07.03.1.01.03.02.06.04.09.01.03.03.07.05.1.01.02.03.05.05.07.09.12.2.23.34.33.03.02.07.04.1.06.03.02.07.04.1.06.03.01.05.03.08.04.02.01.05.02.07.03.03.01.06.03.09.04.04.02.09.03.13.05.09.03.19.07.29.1.1.03.21.07.33.1.29.09.62.18.99.27.3.07.62.14.96.21.17.04.35.07.54.11.18.04.35.07.52.11.61.13,1.17.26,1.69.39.33.08.64.17.93.25.25.07.48.14.71.21.07.02.15.05.22.07.07.02.14.05.21.07h0c.07.03.14.05.21.08.13.05.27.11.4.17.11.05.23.11.34.16.18.09.36.19.53.3.09.06.18.12.27.18.12.08.24.17.35.26.11.09.23.19.34.28.08.07.17.15.25.23.08.08.16.16.24.24.03.03.05.06.08.09.03.03.05.06.08.09.04.05.08.09.12.14.04.05.08.1.12.16.05.07.1.15.15.22.05.08.1.17.15.26.02.04.04.08.06.12.01.02.02.04.03.06.03.07.06.13.09.2.03.07.06.15.09.22.03.06.05.12.06.19.02.06.03.11.05.17,0,0,0,.02,0,.03.02.06.03.12.05.18.02.07.03.13.04.2.03.12.05.24.06.37.01.08.02.16.03.24,0,.08.01.16.02.25.01.13.01.26.02.4Z"/>
  <path class="cls-1" d="M14.17,22.02v5.05c-1.14-.11-2.18-.3-3.1-.57v-7.01h1.4c0,1.09.28,1.82.85,2.18.23.15.51.27.85.35Z"/>
  <path class="cls-1" d="M9.45,19.49v6.4c-.26-.12-.5-.25-.74-.4-1.87-1.13-2.81-3.13-2.81-6h3.55Z"/>
  <path class="cls-1" d="M18.18,0v3.2c-.7-.09-1.44-.14-2.23-.14-.62,0-1.21.03-1.78.08V0h4.01Z"/>
  <path class="cls-1" d="M14.17,32v-3.2c.7.09,1.44.14,2.23.14.62,0,1.21-.03,1.78-.08v3.14h-4.01Z"/>
</svg>