<?xml version="1.0" encoding="UTF-8"?>
<svg id="Camada_1" data-name="Camada 1" xmlns="http://www.w3.org/2000/svg" viewBox="0 0 117.04 191.15">
  <defs>
    <style>
      .cls-1 {
        letter-spacing: -.06em;
      }

      .cls-2, .cls-3 {
        fill: #fff;
      }

      .cls-3 {
        font-family: Arial-BoldMT, Arial;
        font-size: 20.62px;
        font-weight: 700;
      }

      .cls-4 {
        letter-spacing: 0em;
      }

      .cls-5 {
        fill: #62ba8c;
      }
    </style>
  </defs>
  <g>
    <path class="cls-5" d="M56.97.13c1.14-.2,1.86-.17,2.98.12,2.57.66,7.88,3.96,10.87,5.2,9.88,4.09,20.11,7.45,30.62,9.56,3.63.73,9.62.83,12.65,2,1.91.74,2.53,2.59,2.58,4.51-.99,17.57,1.26,36.47-.02,53.89-2.05,27.77-27.49,49.41-52.34,57.78-4.4,1.48-4.67,1.92-9.34.6-16.69-4.73-37.16-18.67-46.27-33.6C-5.46,76.97,2.45,46.49.36,20.56c.34-2.22,1.73-3.25,3.78-3.79,4.27-1.12,10-1.34,14.68-2.33,9.55-2.01,18.82-5.23,27.72-9.14,2.61-1.15,8.2-4.78,10.43-5.17ZM76.23,50.12h-8.03c-1.11-1.37-1.32-3.3-2.39-4.7-4.79-6.26-18.47-3.69-15.59,5.67,1.31,4.25,13.46,5.5,17.52,7.05,6.57,2.51,10.53,7.3,9.68,14.66.82.21.94-.34,1.42-.7,3.54-2.71,7.07-7.51,10.39-10.64h-6.85c-1.12-1.45-1.37-7.84.57-8.41,1.59-.47,13.78-.34,15.97-.09,1.87.21,3.29.52,3.57,2.58.43,3.21.42,14.31,0,17.53-.2,1.55-.56,1.92-2.13,2.13-5.97.8-6.97-.55-6.4-6.4l-.94-.23c-.74,1.32-2.22,2.93-3.29,4.01-5.01,5.07-11.14,11.71-17.86,14.29-2.83,1.09-6.07,1.83-9.1,2v7.33l-.71.71h-7.8l-.47-8.5c-5.29-.01-9.09-3.48-12.93-6.58l-19.67,19.58c7.23,7.78,15.77,14.44,25.41,19,2.33,1.1,9.51,4.34,11.69,4.41,4.02.13,17.94-7.36,21.83-9.84,14.29-9.14,25.48-23.07,27.06-40.52l-.04-48.86c-17.02-2.62-33.78-7.39-48.95-15.56-14.91,8.36-31.42,13.15-48.34,15.53l-.02,49.83c.79,6.69,2.87,12.82,6.14,18.67.72.18.75-.11,1.14-.5,6.07-6.07,13.57-15.51,20.1-20.54,3.18-2.45,6.63-1.71,10.44-1.44.7,9.79,19.4,11.6,20.67,2.27,1.17-8.6-14.82-8.79-20.64-11.75-13.49-6.85-8.21-26.11,6.04-27.63.39-1.53-.56-6.48.51-7.29,1.48-1.11,3.58-.27,5-.21.82.04,1.73-.48,2.29-.39,2.15.36.87,6.21,1.28,7.88,6.29.59,11.93,5.2,13.44,11.37.23.92,1.02,3.98-.01,4.27Z"/>
    <path class="cls-2" d="M76.23,50.12c1.04-.29.24-3.35.01-4.27-1.51-6.18-7.15-10.78-13.44-11.37-.41-1.67.87-7.52-1.28-7.88-.56-.09-1.46.43-2.29.39-1.41-.06-3.52-.91-5,.21-1.07.8-.12,5.76-.51,7.29-14.25,1.52-19.53,20.78-6.04,27.63,5.82,2.95,21.82,3.14,20.64,11.75s-16.02,7.79-19.82.71c-1.09-2.03-3.24-3.29-5.54-3.29-2.02,0-3.93.35-5.75,1.76-6.54,5.03-14.03,14.47-20.1,20.54-.39.39-.42.68-1.14.5-3.27-5.85-5.35-11.98-6.14-18.67l.02-49.83c16.91-2.38,33.43-7.17,48.34-15.53,0,0,0,0,0,0,15.17,8.17,31.92,12.94,48.95,15.56l.04,48.86c-1.58,17.45-12.77,31.38-27.06,40.52-3.89,2.49-17.81,9.97-21.83,9.84-2.18-.07-9.37-3.31-11.69-4.41-9.64-4.56-18.18-11.23-25.41-19l19.67-19.58c3.84,3.11,7.64,6.57,12.93,6.58l.47,8.5h7.8l.71-.71v-7.33c3.03-.17,6.27-.91,9.1-2,6.71-2.58,12.85-9.22,17.86-14.29.98-.99,2.29-2.41,3.08-3.65.14-.22.4-.32.65-.26h0c.29.07.48.34.46.64-.45,5.41.65,6.66,6.45,5.88,1.57-.21,1.92-.58,2.13-2.13.42-3.22.43-14.32,0-17.53-.27-2.05-1.7-2.37-3.57-2.58-2.2-.24-14.39-.37-15.97.09-1.94.57-1.69,6.96-.57,8.41h6.85c-3.32,3.13-6.86,7.92-10.39,10.64-.47.36-.6.92-1.42.7.85-7.36-3.11-12.14-9.68-14.66-4.06-1.55-16.22-2.8-17.52-7.05-2.87-9.36,10.81-11.93,15.59-5.67,1.07,1.4,1.28,3.33,2.39,4.7h8.03Z"/>
  </g>
  <g>
    <path class="cls-2" d="M23.3,161.91c2.55-.04,5.27,2.04,5.97,4.5.1.36.54,2.17-.1,2.17h-3.45c-.59-.38-.58-1.1-.93-1.6-1.96-2.81-8.43-1.99-7.42,1.89.54,2.07,6.35,2.64,8.23,3.28,6.56,2.23,5.87,10.26-.68,12.21-.57.17-1.25-.06-1.62.45v3.45l-.35.35h-4.03c-.61-1.35.16-2.62-.1-3.93-3.52-.64-6.56-3.08-6.58-6.89h4.6c.4,4.28,9.79,4.18,8.41-.24-.66-2.11-7.19-2.42-9.35-3.54-5.72-2.98-3.46-11.5,2.75-12.12l.25-3.66h4.03l.35.35v3.34Z"/>
    <path class="cls-2" d="M33.43,166.75c2.38-.06,5.08-1.37,4.26,2.3,1.31-.91,2.26-2.19,3.97-2.48,13.85-2.34,12.1,23.13-1.77,17.31l-2.09-1.94v8.86l-.35.35h-3.68l-.35-.35v-24.06ZM39.26,179.79c2.41,2.14,6.15,1.07,7.13-2.04,1.21-3.86-.8-8.23-5.43-7.27-3.59.75-4.23,7.05-1.7,9.31Z"/>
    <path class="cls-2" d="M104.79,176.88h-12.2c.14,3.04,2.84,4.8,5.76,4.04.88-.23,2.04-1.73,2.18-1.73h4.26c-1.25,4.42-5.22,6.01-9.53,5.5-10.44-1.23-9.81-19.96,2.91-18.1,2.82.41,6.62,3.77,6.62,6.73v3.57ZM100.42,173.88c-.35-4.97-7.54-5.22-7.6,0h7.6Z"/>
    <path class="cls-2" d="M69.34,176.88h-12.2c.18,3.69,4.51,5.63,7.27,3,.27-.26.29-.7.33-.7h4.37c-.81,4.7-5.2,6.01-9.49,5.47-10.38-1.31-9.31-20.04,3.34-18.07,2.66.42,6.39,4.01,6.39,6.74v3.57ZM64.97,173.88c-.47-5.04-7.22-5.09-7.83,0h7.83Z"/>
    <path class="cls-2" d="M85.91,172.04h-4.14c-.11,0-.14-1.14-1.17-1.71-2.91-1.62-6.16,1.41-3.83,2.7,2.78,1.54,8.79.49,9.55,4.93,1.46,8.61-14.63,9.22-15.26,1.21.16-.26,3.66-.32,4.11-.18.47.14.87,1.27,1.76,1.7,1.75.84,5.83.67,5.03-2.03-.39-1.31-4.93-1.67-6.22-2.07-6.64-2.05-4.71-9.43,1.55-10.06,3.98-.4,8.49.82,8.63,5.52Z"/>
    <text class="cls-3" transform="translate(25.52 164.15)"><tspan class="cls-1" x="0" y="0">T</tspan><tspan class="cls-4" x="11.46" y="0">raccia</tspan></text>
  </g>
</svg>