<?xml version="1.0" encoding="UTF-8"?>
<svg id="Camada_1" data-name="Camada 1" xmlns="http://www.w3.org/2000/svg" viewBox="0 0 20 20">
  <defs>
    <style>
      .cls-1 {
        fill: #9b9b9a;
      }
    </style>
  </defs>
  <path class="cls-1" d="M3.44-.08h.55l3.05,1.49L9.41.06l.36-.14h.47c.95.4,1.81,1.02,2.73,1.49,1.04-.47,2.03-1.06,3.08-1.49h.47c.56.15.97.56,1.02,1.16v14.69c-.16,2.23-2.03,4.11-4.26,4.26-2.12.14-4.39-.11-6.53,0-2.29-.15-4.14-2.02-4.3-4.3V1.04c.07-.57.46-.95.98-1.12ZM4.97,3.22v12.39c0,1.02,1.06,1.84,2.02,1.91,1.96.14,4.08-.11,6.05,0,.89,0,1.98-.97,1.98-1.87V3.22c-.51.21-1.02.57-1.53.77-.57.22-.81.15-1.34-.12-.73-.37-1.43-.87-2.17-1.23-.72.37-1.42.87-2.15,1.23-.24.12-.49.26-.77.26-.63,0-1.5-.69-2.1-.91Z"/>
  <path class="cls-1" d="M7.75,5.83c1.42.07,3-.13,4.39-.01,1.51.13,1.63,2.18.19,2.51h-4.73c-1.34-.39-1.24-2.28.15-2.5Z"/>
  <path class="cls-1" d="M7.67,10.03c.92.04,1.95-.09,2.86-.01,1.51.13,1.5,2.34.07,2.51-.64.08-2.17.07-2.83,0-1.43-.13-1.52-2.22-.11-2.51Z"/>
</svg>