<?xml version="1.0" encoding="UTF-8"?>
<svg id="Camada_1" data-name="Camada 1" xmlns="http://www.w3.org/2000/svg" viewBox="0 0 20 20">
  <defs>
    <style>
      .cls-1 {
        fill: #9b9b9a;
      }
    </style>
  </defs>
  <path class="cls-1" d="M20,9.78v3.01c-.19.62-.66,1.02-1.32,1.02-.45,1.07-1.17,2.03-2.08,2.74-.14.11-.68.43-.74.51-.05.07-.05.55-.09.73-.56,2.3-4.09,2.45-4.79.16h-1.94c-.9,2.63-4.94,1.93-4.87-.87-2.6-1.47-3.9-4.76-3.1-7.63.11-.41.3-.78.45-1.18C.01,7.31-.41,5.43.41,3.86c.57-1.1,1.82-1.86,3.07-1.73,1.18.12,1.47,1.8.45,2.36-.41.22-.86.03-1.19.37-.29.3-.3.92,0,1.21.06.06.27.18.35.18.04,0,.6-.45.71-.52.96-.63,2.09-1,3.24-1.1h5.66c.15-.29.26-.59.44-.85.44-.67,1.13-1.16,1.88-1.44s1.43-.39,1.65.56l.02,3.22c.65.54,1.21,1.19,1.63,1.93.07.12.32.7.36.73.08.06.26.03.38.05.46.1.79.53.94.96ZM7.21,7.14c-5.09.39-5.13,7.8-.09,8.31,1.84-.09,3.8.12,5.63,0,4.99-.33,5.21-7.66.27-8.28-1.88.01-3.94-.17-5.81-.03Z"/>
  <path class="cls-1" d="M13.89,8.8c1.88-.29,2.03,2.37.38,2.49s-1.76-2.27-.38-2.49Z"/>
  <path class="cls-1" d="M11.5,2.9c0,.7-.56,1.26-1.25,1.26h-2.5c-.69,0-1.25-.56-1.25-1.26,0-1.38,1.12-2.5,2.5-2.5s2.5,1.12,2.5,2.5Z"/>
</svg>