<?xml version="1.0" encoding="UTF-8"?>
<svg id="Camada_1" data-name="Camada 1" xmlns="http://www.w3.org/2000/svg" viewBox="0 0 20 20">
  <defs>
    <style>
      .cls-1 {
        fill: #fff;
      }
    </style>
  </defs>
  <path class="cls-1" d="M0,3.15c.15-.55.56-.97,1.15-1.02.79-.07,1.69.05,2.49,0,1.08-2.21,4.21-2.22,5.28,0h9.95c1.46.19,1.49,2.25.04,2.49h-9.98c-1.08,2.22-4.21,2.22-5.28,0-.81-.05-1.7.07-2.49,0-.59-.05-1-.46-1.15-1.02v-.47Z"/>
  <path class="cls-1" d="M0,16.27c.15-.55.56-.97,1.15-1.02.79-.07,1.69.05,2.49,0,1.07-2.22,4.21-2.22,5.28,0h9.95c1.46.19,1.49,2.25.04,2.49h-9.98c-1.08,2.22-4.21,2.22-5.28,0-.81-.05-1.7.07-2.49,0-.59-.05-1-.46-1.15-1.02v-.47Z"/>
  <path class="cls-1" d="M0,9.71c.14-.54.54-.95,1.11-1.01h9.95c1.07-2.21,4.21-2.22,5.28,0,.81.05,1.7-.07,2.49,0,1.53.13,1.52,2.37,0,2.5-.79.07-1.69-.05-2.49,0-1.08,2.21-4.21,2.22-5.28,0H1.12c-.57-.06-.97-.48-1.11-1.01v-.47Z"/>
</svg>